<svg width="840" height="459" viewBox="0 0 840 459" fill="none" xmlns="http://www.w3.org/2000/svg">
<path d="M417.039 1.25172C417.761 3.08126 417.135 5.58483 415.787 6.4996C414.198 7.55882 413.428 7.41438 411.502 5.72927C410.106 4.47748 409.817 3.89973 409.817 2.31092V0.385094L405.869 0.722115C401.006 1.10728 393.062 2.5035 387.91 3.89973C385.792 4.42934 383.481 5.00709 382.711 5.15152C381.988 5.29596 381.266 5.58483 381.122 5.82556C380.977 6.06629 380.352 6.25887 379.726 6.25887C379.1 6.25887 378.474 6.45146 378.329 6.69218C378.185 6.88477 377.415 7.22179 376.596 7.36623C375.778 7.55882 373.948 8.23286 372.504 8.9069C371.011 9.58094 369.663 10.1105 369.471 10.1105C368.845 10.1105 358.975 15.214 358.301 15.888C358.156 16.0325 357.434 16.5139 356.616 16.9473C355.46 17.5731 355.123 18.1027 355.027 19.5953C354.931 20.6063 354.401 21.9063 353.823 22.5322C352.957 23.4469 352.379 23.6395 350.02 23.5432C347.035 23.4469 347.131 23.3988 343.135 27.0579C342.076 28.0689 341.065 28.8874 340.872 28.8874C340.053 28.8874 340.535 30.9577 341.69 32.4502C342.364 33.3168 342.894 34.4723 342.894 34.9538C342.894 36.2056 339.524 39.4795 338.32 39.4795C337.791 39.4795 336.491 38.8055 335.431 37.987L333.506 36.5426L332.639 37.6499C332.158 38.2758 331.243 39.3351 330.617 40.0091C329.991 40.7313 328.691 42.4645 327.728 43.8608L325.947 46.4606L326.187 59.9415C326.332 67.3559 326.573 73.8556 326.669 74.3852C326.813 74.9148 326.958 75.637 326.958 75.974C327.006 76.311 327.584 77.1777 328.306 77.8999C331.339 80.8849 329.076 85.6032 324.888 85.0736C323.828 84.9291 322.673 84.3995 322.288 83.9181C321.421 82.7626 321.806 79.8738 323.106 78.0443C323.973 76.8407 324.213 75.5407 324.599 69.4743C325.176 60.5674 325.225 49.2531 324.695 48.9161C324.454 48.7716 323.973 49.2531 323.588 49.9753C323.202 50.6975 322.817 51.3715 322.673 51.5159C321.951 52.2381 318.629 58.786 317.377 61.8673C317.184 62.3969 316.655 63.6005 316.269 64.5153C315.884 65.4301 315.403 66.73 315.21 67.4041C315.066 68.0781 314.729 69.041 314.488 69.5706C313.14 72.7964 310.588 84.3514 309.818 90.5622L309.577 92.7769L312.37 93.0658C315.066 93.3547 320.362 94.0287 324.117 94.6065C325.032 94.7509 327.391 95.0879 329.317 95.3286C334.854 96.099 339.379 96.7249 344.82 97.4471C350.068 98.2174 351.657 98.41 358.06 99.2285C360.178 99.5173 363.308 99.9506 365.041 100.191C366.774 100.432 369.711 100.769 371.589 100.914C374.911 101.202 375.007 101.202 375.296 100.095C375.489 99.4692 375.633 98.3618 375.633 97.6396C375.633 95.762 376.452 92.488 378.329 86.8068C379.244 84.0625 379.966 81.6071 379.966 81.3182C379.966 80.933 378.426 80.8849 374.574 81.1256C370.193 81.3664 368.652 81.6552 366.823 82.6181C363.934 84.0144 363.115 84.0625 361.478 82.7626C359.793 81.4145 359.697 78.1887 361.334 76.6962C363.26 74.8667 364.367 74.8667 366.871 76.6962C369.471 78.5739 373.033 79.4405 378.185 79.4405C381.074 79.4405 381.555 79.3442 381.748 78.4776C381.892 77.948 382.181 77.5147 382.422 77.5147C382.663 77.5147 382.855 77.274 382.855 76.9369C382.855 76.4073 386.081 72.0742 388.633 69.1855C389.307 68.4151 391.088 66.8263 392.629 65.6708C394.988 63.9376 395.325 63.5043 394.603 63.2154C394.121 63.0228 386.851 63.1191 378.474 63.4561C364.367 63.9376 363.115 64.082 361.382 64.9968C360.323 65.5745 359.312 66.2486 359.071 66.4893C358.204 67.3078 356.953 66.9226 355.46 65.4301C353.39 63.408 353.39 61.1933 355.508 59.46C357.29 57.9675 359.215 58.0638 361.093 59.8452C362.201 60.9044 362.345 60.9044 380.929 61.0488L399.658 61.1933L403.365 59.9896C405.387 59.3156 407.746 58.7378 408.661 58.7378C410.106 58.7378 411.069 57.9193 417.905 51.0345L425.512 43.3312H436.971H448.382L459.792 31.8725L471.203 20.4619L479.965 20.2212C486.176 20.0286 488.631 19.836 488.391 19.4508C487.813 18.5842 482.998 15.6955 476.788 12.4215L473.225 10.592H467.255H461.285L451.559 20.2212L441.834 29.8503H426.042H410.202L402.499 37.6499L394.747 45.4977L381.218 45.7384C369.374 45.9792 367.448 46.1236 365.908 46.8939C364.897 47.3754 364.078 47.9532 364.078 48.1939C364.078 48.3865 363.308 48.7235 362.393 48.9161C359.793 49.3975 358.301 48.1939 358.301 45.594C358.301 41.9349 361.526 40.2498 364.463 42.2719C367.063 44.1015 368.748 44.2941 381.17 44.2941H393.303L394.94 42.7053C395.854 41.7905 399.273 38.324 402.547 35.0019L408.565 28.8874H424.935L441.352 28.8393L451.222 19.0175L461.092 9.14762H464.318C466.099 9.14762 467.688 8.9069 467.832 8.66617C467.977 8.37729 467.688 8.18471 467.158 8.18471C466.629 8.18471 466.051 7.94398 465.907 7.70325C465.762 7.41438 465.088 7.22179 464.462 7.22179C463.836 7.22179 463.21 7.02921 463.066 6.78848C462.922 6.54775 462.199 6.25887 461.477 6.11444C460.707 5.97 458.492 5.39225 456.518 4.8145C452.522 3.70715 445.252 2.11834 441.978 1.68503L439.86 1.39616L431.531 9.72537L423.201 18.0546L398.069 18.1027C384.299 18.1509 372.793 18.199 372.552 18.2472C372.263 18.2472 365.523 24.8913 357.482 32.9317L342.894 47.568V54.9824C342.942 66.73 343.568 73.3742 344.868 75.2518C345.494 76.0703 346.168 76.8407 346.361 76.9369C347.612 77.4665 345.301 81.5108 343.279 82.3774C341.883 82.9552 340.198 82.6181 339.139 81.5108C337.935 80.3553 338.272 76.8888 339.716 74.963C341.498 72.6038 341.931 69.378 341.931 57.2934V46.9421L356.76 31.8725L371.541 16.851H396.769H422.046L429.653 9.29206C433.842 5.15152 437.26 1.58874 437.26 1.4443C437.26 0.866547 428.594 -7.62939e-05 422.672 -7.62939e-05H416.557L417.039 1.25172Z" fill="#A186E9"/>
<path d="M461.381 32.9798L450.115 44.2941H437.983H425.85L421.806 48.4828C419.591 50.7456 416.75 53.5862 415.498 54.7899C414.199 55.9935 413.188 57.149 413.188 57.3898C413.188 57.5823 414.054 57.7749 415.065 57.7749C417.906 57.7749 424.117 58.6416 427.342 59.5082L430.183 60.2785L433.361 57.1009L436.586 53.9233H450.26C458.3 53.9233 464.27 54.1158 464.704 54.4047C465.089 54.6454 465.329 54.9343 465.185 54.9825C465.041 55.0306 458.733 55.1751 451.126 55.3195L437.26 55.6084L434.805 58.0638C433.409 59.5082 432.446 60.8081 432.638 61.097C432.831 61.3859 433.794 62.0599 434.805 62.5895C435.816 63.071 437.597 64.2265 438.801 65.1412L440.968 66.8263L442.46 65.4301L444.001 63.9857L466.629 63.6969L489.258 63.408L496.913 70.9669C502.402 76.3592 504.905 78.4776 505.724 78.4776C510.009 78.4776 519.879 77.3703 521.034 76.7925C522.96 75.7815 523.104 75.3963 522.527 72.7001C522.238 71.352 521.756 69.1373 521.467 67.7411C520.938 65.0931 518.868 58.2082 518.145 56.5713C517.953 56.0417 517.375 54.6936 516.894 53.5381C516.027 51.516 516.027 51.516 513.62 51.516C511.549 51.516 511.02 51.3234 510.153 50.216C508.757 48.4346 506.013 48.1939 487.477 48.1939L472.455 48.1458L469.566 51.1308C467.977 52.8159 466.581 54.0196 466.485 53.9233C466.34 53.7788 467.689 52.0937 469.47 50.1679L472.696 46.7014H489.306C498.406 46.7014 506.687 46.5569 507.65 46.4125C508.661 46.2199 510.009 45.594 510.683 44.9681L511.886 43.8608L508.95 39.6239C505.05 34.039 501.005 29.5133 496.046 25.1802L492.05 21.6656H482.325H472.648L461.381 32.9798Z" fill="#A186E9"/>
<path d="M443.856 66.3449C442.268 67.9819 442.268 68.4152 443.568 69.6189C445.638 71.4965 449.104 77.5148 450.019 80.885C450.164 81.559 450.693 83.87 451.126 86.0847L451.945 90.0808L467.833 90.0327C486.369 90.0327 487.862 89.8882 490.558 88.0587C493.88 85.7477 497.491 86.4217 499.176 89.5994C500.572 92.3437 499.561 95.6657 496.913 97.0138C494.65 98.2175 491.954 97.4471 489.065 94.7991C487.428 93.2103 483.817 92.9214 467.64 92.9214H451.8L451.512 96.1472C451.078 101.299 450.693 103.706 450.212 104.236C449.971 104.476 449.778 105.295 449.778 106.017V107.365H479.292H508.757L515.257 100.769C522.816 93.0177 523.971 91.1882 523.875 86.6625C523.827 83.6293 523.393 82.1849 522.286 81.1257C521.13 80.0183 516.894 79.4406 510.201 79.4406H503.268L495.998 72.2187L488.728 64.9969H466.918H445.156L443.856 66.3449Z" fill="#A186E9"/>
<path d="M516.027 102.551L510.105 108.328H479.581L449.056 108.376L447.66 111.506C446.215 114.731 442.219 121.183 440.582 122.916C438.416 125.275 437.164 125.179 477.414 125.179C498.165 125.179 515.497 125.035 515.931 124.89C516.364 124.746 516.701 124.312 516.701 123.927C516.701 123.542 516.894 122.868 517.134 122.387C518.482 119.787 520.745 113.143 521.275 110.254C521.467 109.339 521.804 107.461 522.045 106.161C522.912 101.828 523.104 96.773 522.478 96.773C522.19 96.773 519.253 99.3729 516.027 102.551Z" fill="#A186E9"/>
<path d="M171.977 123.061C171.977 123.302 177.128 128.646 183.436 134.905L194.846 146.363L195.135 154.981L195.376 163.551L197.157 165.718C198.505 167.355 199.42 167.981 201.346 168.51C202.646 168.847 203.753 169.329 203.753 169.57C203.753 169.762 204.09 169.955 204.475 169.955C205.246 169.955 209.338 172.314 211.697 174.047L213.19 175.203L215.79 172.603L218.389 169.955H223.397C229.222 169.955 231.629 169.377 233.603 167.451C234.374 166.729 235.337 166.103 235.674 166.103C236.011 166.103 238.033 164.322 240.248 162.107L244.196 158.159V151.082V144.004L242.462 142.656C241.548 141.934 240.199 140.827 239.477 140.249C238.755 139.623 237.985 139.142 237.792 139.142C237.551 139.142 236.492 138.516 235.337 137.745C233.603 136.542 224.6 131.92 224.022 131.92C223.926 131.92 223.926 136.156 224.071 141.356L224.359 150.745L225.852 152.622C227.778 155.03 227.874 157.244 226.093 158.929C224.408 160.518 221.374 160.518 220.074 158.929C218.871 157.437 218.919 156.233 220.315 153.874C221.904 151.13 222.53 146.749 222.53 138.323C222.53 131.197 222.53 131.053 221.471 130.812C220.845 130.668 217.812 129.657 214.682 128.598C211.553 127.49 208.808 126.624 208.519 126.624C207.942 126.624 207.942 142.849 208.568 148.434C208.808 150.937 209.434 153.537 210.012 154.789C210.927 156.715 210.975 157.004 210.301 158.544C209.627 160.181 207.508 161.77 205.968 161.77C205.053 161.77 202.79 158.833 202.79 157.63C202.79 157.148 203.56 155.511 204.427 154.067C206.497 150.697 207.027 147.086 207.123 135.386C207.171 126.238 207.123 125.998 204.235 125.516C203.32 125.372 201.249 124.987 199.661 124.698C198.072 124.409 195.279 123.976 193.402 123.687C188.587 123.061 171.977 122.579 171.977 123.061Z" fill="#A186E9"/>
<path d="M679.771 123.061C679.578 123.253 684.537 128.597 690.844 134.905L702.303 146.363L702.592 155.078C702.736 159.844 703.025 163.888 703.314 164.081C703.555 164.273 704.325 165.188 704.999 166.103C705.962 167.403 706.925 167.981 708.755 168.51C710.103 168.847 711.21 169.329 711.21 169.57C711.21 169.762 711.499 169.955 711.836 169.955C712.703 169.955 717.71 172.699 718.432 173.566C718.769 173.951 719.299 174.288 719.636 174.288C720.021 174.288 720.358 174.48 720.454 174.769C720.55 175.01 721.802 174.047 723.246 172.603L725.895 170.003L730.902 169.955C736.679 169.955 738.894 169.425 741.109 167.499C742.023 166.729 742.986 166.103 743.227 166.103C743.516 166.103 745.49 164.322 747.705 162.107L751.653 158.159V151.082V144.004L749.919 142.656C749.004 141.934 747.656 140.826 746.934 140.249C746.212 139.623 745.394 139.141 745.057 139.141C744.768 139.141 744.431 138.997 744.334 138.756C744.286 138.564 743.564 138.034 742.746 137.553C741.109 136.59 731.816 131.919 731.479 131.919C731.383 131.919 731.383 136.012 731.528 140.971C731.816 150.311 732.298 152.718 734.127 153.441C735.283 153.874 734.994 157.533 733.742 158.785C731.528 160.807 728.398 160.566 727.146 158.255C726.472 156.955 726.713 155.029 727.724 153.97C729.361 152.237 729.65 150.407 729.891 140.778L730.083 131.101L728.976 130.812C728.35 130.668 725.22 129.657 722.091 128.549C717.613 127.009 716.265 126.72 715.928 127.201C715.447 127.972 715.495 137.938 715.976 146.363C716.313 151.756 716.554 153.152 717.469 154.644C718.384 156.233 718.432 156.666 717.95 158.207C717.373 159.94 715.11 161.77 713.521 161.77C712.558 161.77 710.247 158.929 710.247 157.726C710.247 157.003 711.114 155.126 711.691 154.548C713.762 152.478 714.484 147.519 714.58 135.482C714.628 125.949 714.628 125.998 711.691 125.516C710.777 125.372 708.706 124.986 707.118 124.698C699.559 123.301 680.637 122.146 679.771 123.061Z" fill="#A186E9"/>
<path d="M161.77 123.975C161.626 124.12 160.133 124.457 158.448 124.698C154.982 125.179 151.852 125.853 149.349 126.575C148.434 126.816 147.134 127.201 146.46 127.346C143.908 128.02 138.901 129.657 137.312 130.331C136.397 130.716 135.194 131.245 134.664 131.438C133.075 132.064 123.687 136.686 122.146 137.601C121.376 138.034 120.317 138.804 119.787 139.238C119.257 139.719 118.583 140.104 118.246 140.104C117.909 140.104 117.572 140.297 117.476 140.489C117.428 140.73 116.128 141.693 114.684 142.656C108.906 146.508 99.8066 155.318 94.8957 161.914C91.4773 166.488 86.2776 174.865 86.2776 175.828C86.2776 176.165 89.5996 173.132 93.6439 169.088L100.962 161.77H130.909H160.855L163.263 164.177C164.611 165.477 165.766 166.584 165.863 166.584C165.959 166.584 167.259 166.344 168.655 166.103C174.721 164.947 180.306 164.562 185.602 165.044C187.913 165.236 190.128 165.236 190.465 165.044C191.043 164.707 191.38 163.936 192.006 161.048C192.15 160.518 192.391 157.437 192.535 154.163L192.824 148.241L180.595 135.964L168.414 123.735H165.189C163.455 123.735 161.915 123.831 161.77 123.975Z" fill="#A186E9"/>
<path d="M667.397 124.264C666.194 124.505 664.316 124.938 663.161 125.179C662.053 125.468 660.609 125.661 659.935 125.661C659.309 125.661 658.635 125.853 658.49 126.142C658.346 126.383 657.72 126.623 657.19 126.623C656.083 126.623 655.457 126.816 649.343 128.79C645.587 129.994 643.902 130.668 642.265 131.486C641.784 131.727 641.062 131.92 640.676 131.92C640.291 131.92 639.954 132.112 639.954 132.401C639.954 132.642 639.521 132.882 638.991 132.882C638.462 132.882 638.028 133.075 638.028 133.364C638.028 133.605 637.74 133.845 637.354 133.845C636.536 133.845 630.903 136.83 628.062 138.756C626.955 139.478 625.848 140.104 625.559 140.104C625.27 140.104 625.029 140.297 625.029 140.489C625.029 140.682 624.307 141.26 623.488 141.789C622.622 142.271 621.803 142.8 621.659 142.945C621.514 143.089 620.118 144.197 618.529 145.4C614.774 148.241 607.167 155.848 603.749 160.133C599.415 165.573 593.253 175.443 593.831 176.021C593.927 176.117 597.297 172.94 601.341 168.992L608.611 161.77H638.51H668.36L670.768 164.177C672.068 165.477 673.223 166.585 673.367 166.585C673.464 166.585 674.716 166.344 676.112 166.103C682.371 164.899 688.148 164.562 693.3 165.044C695.948 165.285 697.537 165.236 697.97 164.899C699.174 163.936 699.751 160.951 699.992 154.644L700.281 148.241L688.052 135.964L675.871 123.735L672.693 123.783C670.96 123.831 668.601 124.024 667.397 124.264Z" fill="#A186E9"/>
<path d="M430.713 134.182C427.006 137.842 420.265 144.197 415.691 148.289C411.166 152.382 407.41 155.896 407.41 156.089C407.41 156.33 411.551 156.474 416.654 156.474H425.898L434.131 148.097L442.316 139.719L470.77 139.527L499.272 139.382L501.198 137.793C503.413 136.06 505.579 135.771 507.842 136.975C509.094 137.601 509.239 137.601 509.383 136.975C509.479 136.59 509.72 136.253 509.913 136.253C510.346 136.253 514.294 128.886 514.294 128.116C514.294 127.731 503.317 127.586 475.825 127.586H437.357L430.713 134.182Z" fill="#A186E9"/>
<path d="M434.853 149.493L426.428 157.918H415.595L404.762 157.966L401.584 160.952C399.851 162.588 397.54 164.707 396.481 165.622C391.426 170.051 386.563 174.577 386.226 175.251C385.889 175.877 389.596 175.973 419.832 175.829L453.775 175.732L459.6 169.714L465.426 163.696H476.307H487.14L492.436 158.255C497.539 153.007 499.272 151.13 501.776 147.808C502.45 146.941 503.268 145.93 503.605 145.593C503.894 145.256 504.183 144.775 504.183 144.582C504.183 143.908 501.535 142.127 499.995 141.693C499.272 141.501 486.177 141.26 470.963 141.212L443.279 141.019L434.853 149.493Z" fill="#A186E9"/>
<path d="M245.64 150.937C245.64 153.73 245.737 155.992 245.881 155.992C246.459 155.992 250.936 151.515 250.936 150.937C250.936 150.359 246.459 145.882 245.881 145.882C245.737 145.882 245.64 148.145 245.64 150.937Z" fill="#A186E9"/>
<path d="M753.097 150.937C753.097 153.73 753.193 155.992 753.338 155.992C753.916 155.992 758.393 151.515 758.393 150.937C758.393 150.359 753.916 145.882 753.338 145.882C753.193 145.882 753.097 148.145 753.097 150.937Z" fill="#A186E9"/>
<path d="M93.0658 171.736C83.0996 181.413 83.0996 181.413 80.5479 189.454C79.7294 192.102 78.8147 194.894 78.5739 195.665C78.3332 196.435 78.2369 197.253 78.3813 197.446C78.5258 197.687 89.4549 197.879 102.695 197.879H126.768L130.957 193.594C133.268 191.235 136.493 187.576 138.178 185.41C140.778 181.991 141.163 181.269 141.163 179.439C141.163 176.454 142.56 175.251 146.026 175.251C147.856 175.251 148.963 175.01 149.637 174.384C150.745 173.421 152.815 172.218 156.811 170.292C158.4 169.521 160.085 168.703 160.518 168.462C161 168.221 161.722 168.029 162.107 168.029C163.455 168.029 162.829 166.344 160.903 164.514L158.929 162.733H130.62H102.262L93.0658 171.736Z" fill="#A186E9"/>
<path d="M600.571 171.688C594.12 177.899 591.086 181.221 590.461 182.617C588.535 186.998 585.453 197.157 585.935 197.639C586.079 197.783 597.057 197.879 610.345 197.879H634.514L638.558 193.642C640.773 191.331 643.132 188.683 643.806 187.817C644.48 186.902 645.828 185.121 646.839 183.821C648.284 181.991 648.621 181.125 648.621 179.439C648.621 176.454 650.017 175.251 653.483 175.251C655.313 175.251 656.42 175.01 657.094 174.384C658.202 173.421 660.272 172.218 664.268 170.292C665.857 169.521 667.542 168.703 667.975 168.462C668.457 168.221 669.179 168.029 669.564 168.029C670.912 168.029 670.286 166.344 668.361 164.514L666.387 162.733H638.125H609.815L600.571 171.688Z" fill="#A186E9"/>
<path d="M472.84 165.044L465.329 165.14L459.167 171.64L452.956 178.139H417.713H382.47L380.159 180.354C378.859 181.558 376.741 183.484 375.393 184.639C374.093 185.795 371.541 188.106 369.808 189.791C368.027 191.428 365.956 193.305 365.234 193.883L363.838 194.942H390.318L416.798 194.991L425.079 203.175C429.605 207.701 433.649 211.36 433.986 211.36C435.142 211.312 440.63 205.727 440.63 204.523C440.63 201.731 443.856 198.842 446.938 198.842C448.478 198.842 450.308 197.542 455.604 192.535C456.856 191.38 458.396 189.983 459.07 189.454C459.696 188.924 462.152 186.758 464.511 184.639C466.822 182.521 469.711 179.921 470.914 178.862C472.166 177.802 474.525 175.588 476.258 173.951C477.992 172.314 480.64 169.858 482.18 168.462C483.721 167.066 484.876 165.718 484.78 165.429C484.588 164.851 484.01 164.851 472.84 165.044Z" fill="#A186E9"/>
<path d="M219.882 172.314C218.293 173.084 214.826 175.877 214.826 176.406C214.826 176.503 215.789 177.562 216.993 178.814C218.197 180.114 219.16 181.317 219.16 181.558C219.16 182.762 220.845 181.51 225.37 176.984C229.944 172.41 230.233 171.977 229.174 171.736C226.815 171.062 221.808 171.399 219.882 172.314Z" fill="#A186E9"/>
<path d="M727.291 172.362C726.232 172.892 724.691 174.047 723.824 174.914L722.332 176.455L724.98 179.343L727.58 182.184L732.635 177.177C738.316 171.495 738.316 171.495 732.635 171.447C730.18 171.399 728.735 171.64 727.291 172.362Z" fill="#A186E9"/>
<path d="M129.512 196.676L127.201 198.842H102.695H78.1884L77.7069 200.142C77.1773 201.587 76.5996 205.149 76.5033 207.99L76.407 209.675L92.1025 209.82L107.798 209.916L113.672 215.934L119.594 221.952H122.675H125.756V219.786C125.756 214.008 128.26 203.32 130.956 197.735C131.582 196.435 132.015 195.183 131.919 194.942C131.823 194.702 130.764 195.472 129.512 196.676Z" fill="#A186E9"/>
<path d="M637.066 196.676L634.947 198.842H610.248H585.598L585.116 200.624C584.298 203.753 583.576 208.953 583.864 209.434C584.057 209.723 590.316 209.916 599.656 209.916H615.159L621.177 215.934L627.196 221.952H630.181H633.214V220.123C633.262 218.052 634.369 210.638 635.14 207.509C635.429 206.305 635.814 204.764 635.958 203.994C636.103 203.272 636.392 202.55 636.632 202.405C636.873 202.261 637.066 201.683 637.066 201.057C637.066 200.479 637.21 199.853 637.354 199.661C637.98 199.083 639.906 194.509 639.569 194.509C639.377 194.509 638.221 195.472 637.066 196.676Z" fill="#A186E9"/>
<path d="M359.89 198.698C358.542 199.998 355.99 202.309 354.257 203.849C348.816 208.664 347.228 210.253 347.565 210.59C347.998 211.023 398.166 210.879 403.895 210.445C408.18 210.06 409.047 209.868 410.347 208.76C412.754 206.738 415.21 206.546 417.906 208.279C418.772 208.857 418.965 209.434 418.965 211.408C418.965 213.575 418.772 214.056 417.328 215.501C416.365 216.464 415.21 217.138 414.487 217.138C412.61 217.138 410.058 215.886 409.384 214.634C408.228 212.419 406.591 212.323 374.767 212.323H345.061L343.809 213.43C342.557 214.49 336.491 219.93 333.651 222.578C332.832 223.3 331.532 224.408 330.762 225.082L329.317 226.334L330.425 227.97C331.628 229.656 332.784 230.33 335.576 230.811C336.443 230.956 354.064 231.1 374.719 231.1L412.273 231.148L420.265 224.023C424.646 220.123 429.22 216.03 430.424 214.923L432.638 212.949L424.357 204.716L416.076 196.435H389.211H362.345L359.89 198.698Z" fill="#A186E9"/>
<path d="M76.0703 212.179C75.7815 212.949 75.4445 217.089 75.3 221.423C75.1074 227.778 75.2037 229.367 75.7333 229.704C77.2258 230.667 84.4477 229.367 85.4106 227.97C85.6032 227.73 86.7587 227.489 87.9624 227.537C91.9585 227.633 93.8843 231.533 91.2363 234.181C89.4067 236.011 88.0105 236.203 85.6514 235C83.7255 234.037 77.5147 232.929 76.3592 233.363C75.1556 233.796 76.8407 244.677 79.6813 254.932C80.4516 257.725 80.8368 258.062 83.4367 258.062H85.7477L94.0287 249.636L102.31 241.211H115.068H127.779L127.442 239.862C126.768 237.022 126.238 233.026 125.949 228.307L125.612 223.397H122.483H119.305L112.998 217.138L106.643 210.879H91.6214H76.6481L76.0703 212.179Z" fill="#A186E9"/>
<path d="M583.864 211.36C583.383 212.13 582.661 219.93 582.661 224.648C582.661 227.778 582.853 229.222 583.335 229.607C584.346 230.426 589.786 229.752 592.627 228.404C595.516 227.008 597.249 227.2 598.886 229.126C600.33 230.763 600.282 232.592 598.838 234.133C597.153 235.963 595.516 236.203 593.108 235C591.134 233.989 585.068 232.881 583.912 233.315C583.527 233.459 583.431 234.47 583.72 237.022C584.201 241.933 584.586 244.581 585.068 246.507C585.886 249.684 587.09 254.451 587.331 255.654C587.764 257.628 588.438 258.062 590.942 258.062H593.349L601.534 249.636L609.767 241.211H622.525H635.284L634.899 239.622C634.225 236.829 633.743 232.833 633.406 228.067L633.069 223.397H629.94H626.762L620.455 217.138L614.1 210.879H599.127C589.642 210.879 584.057 211.071 583.864 211.36Z" fill="#A186E9"/>
<path d="M319.641 235.096L315.933 238.563V247.036V255.558L317.522 255.895C318.341 256.088 338.177 256.377 361.576 256.473L404.088 256.665L408.999 261.48C414.006 266.487 416.943 268.557 419.591 269.087C420.747 269.328 421.373 269.857 421.999 271.205C422.865 272.939 422.865 273.035 421.999 274.768C421.276 276.357 420.891 276.598 419.302 276.742C417.762 276.887 417.232 276.646 416.077 275.394C415.258 274.527 414.632 273.42 414.632 272.939C414.632 272.457 414.44 272.024 414.151 272.024C413.91 272.024 413.669 271.687 413.669 271.302C413.669 270.917 413.477 270.58 413.284 270.58C413.092 270.58 412.514 269.954 412.081 269.135C411.599 268.365 409.384 265.813 407.17 263.502L403.077 259.265L360.613 259.362C337.214 259.41 317.618 259.602 317.041 259.747C315.933 259.987 315.933 260.084 315.933 268.846V277.657L319.496 281.075L323.059 284.542H334.903H346.747L348.769 282.712C349.924 281.749 351.802 280.016 353.006 278.957C354.209 277.85 356.039 276.213 357.098 275.346C358.109 274.431 359.842 272.891 360.95 271.879L362.876 270.098H380.449H398.022L408.229 280.305L418.436 290.56L418.58 292.967L418.725 295.375L424.887 295.519L431.002 295.664V274.046V252.477L422.913 244.436L414.825 236.396H411.118C409.096 236.396 407.41 236.203 407.41 235.915C407.41 235.674 407.988 234.855 408.758 234.133L410.058 232.785L381.893 232.641C349.876 232.496 333.699 232.978 331.292 234.181C328.981 235.337 326.429 235.192 325.177 233.844C324.6 233.218 324.118 232.448 324.118 232.159C324.118 231.148 323.444 231.581 319.641 235.096Z" fill="#A186E9"/>
<path d="M417.328 236.829C417.184 237.022 420.506 240.633 424.742 244.87L432.446 252.477V274.046V295.615H441.594C446.649 295.615 450.741 295.471 450.741 295.278C450.741 295.086 447.997 292.293 444.627 289.019L438.464 283.049L438.223 269.857L437.983 256.665L436.683 255.317C435.623 254.21 435.335 253.44 435.335 251.755C435.335 248.866 436.731 247.47 439.523 247.47C441.305 247.47 441.545 247.614 442.316 249.203C443.134 250.936 442.99 253.825 442.027 254.98C441.305 255.895 440.631 263.935 440.631 272.602V281.075L447.515 288.105L454.352 295.134H479.918H505.531L512.031 288.442C518.242 281.99 520.553 278.764 520.553 276.453C520.553 275.876 521.275 274.865 522.238 274.094L523.923 272.746V258.976V245.159L522.864 244.87C522.238 244.725 517.519 244.581 512.368 244.581H502.979L496.961 250.599L490.943 256.617H473.659H456.374L453.149 253.343C448.238 248.432 438.657 239.188 436.875 237.696L435.238 236.396H426.428C421.565 236.396 417.472 236.589 417.328 236.829Z" fill="#A186E9"/>
<path d="M439.186 236.926C439.186 237.263 443.23 241.596 448.189 246.603L457.193 255.654H473.755H490.317L496.961 248.914L503.557 242.174H513.716H523.923V239.285V236.396H508.612H493.302L491.665 237.6C490.124 238.755 489.739 238.803 483.288 238.803C475.584 238.851 469.999 239.67 467.592 241.162C464.222 243.185 461.333 242.125 460.9 238.707L460.611 236.637L449.923 236.492C441.882 236.396 439.186 236.54 439.186 236.926Z" fill="#A186E9"/>
<path d="M480.592 236.877L473.611 237.166L481.699 237.263C486.803 237.311 489.739 237.166 489.739 236.877C489.739 236.589 489.258 236.444 488.68 236.492C488.054 236.54 484.443 236.733 480.592 236.877Z" fill="#A186E9"/>
<path d="M95.4251 250.84L87.0477 259.506H84.2553C81.3184 259.506 80.9332 259.891 81.8961 261.817C82.1368 262.25 82.522 263.165 82.8109 263.839C83.0516 264.513 84.3515 267.209 85.6033 269.857L87.9625 274.672L93.4993 274.816L99.036 274.913L105.054 268.894L111.072 262.876H124.409C131.775 262.876 137.793 262.78 137.793 262.635C137.793 262.491 136.734 260.806 135.482 258.88C133.268 255.558 130.331 249.395 129.031 245.303C128.02 242.029 128.694 242.173 115.694 242.173H103.802L95.4251 250.84Z" fill="#A186E9"/>
<path d="M602.93 250.84L594.504 259.506H591.712C588.775 259.506 588.631 259.65 589.449 261.769C589.738 262.491 590.171 263.55 590.364 264.08C590.556 264.609 591.808 267.209 593.06 269.857L595.419 274.672L600.956 274.816L606.493 274.961L612.511 268.894L618.529 262.876H631.914C639.232 262.876 645.25 262.78 645.25 262.587C645.25 262.443 644.432 261.095 643.421 259.602C641.013 256.088 637.836 249.443 636.536 245.303C635.477 242.029 636.151 242.173 623.151 242.173L611.307 242.222L602.93 250.84Z" fill="#A186E9"/>
<path d="M220.797 263.743C219.448 264.658 219.737 265.717 222 267.787C228.163 273.324 229.704 274.479 232.015 275.298C234.326 276.068 234.326 275.25 232.015 273.324C230.907 272.409 228.452 270.146 226.574 268.365C221.759 263.695 221.374 263.358 220.797 263.743Z" fill="#A186E9"/>
<path d="M728.206 263.695C726.713 264.224 727.628 266.198 730.276 268.509C731.768 269.761 733.453 271.254 734.031 271.783C736.487 274.142 740.772 276.309 741.301 275.442C741.397 275.201 739.953 273.661 738.075 271.976C736.15 270.291 733.694 268.028 732.635 266.969C729.65 264.032 728.831 263.454 728.206 263.695Z" fill="#A186E9"/>
<path d="M105.006 270.098L99.2764 276.116L94.173 276.261C90.0806 276.405 89.1658 276.598 89.3584 277.127C89.7435 278.138 94.3655 284.927 96.7728 288.008L98.9394 290.801H107.365H115.742L120.509 285.89C125.853 280.449 126.72 279.053 126.72 276.116C126.72 273.276 129.175 271.157 131.727 271.831C133.027 272.12 134.423 274.335 134.423 276.02C134.423 277.753 132.208 280.209 130.667 280.209C129.223 280.209 127.345 281.653 120.557 288.153C118.053 290.512 115.694 292.63 115.261 292.823C114.779 293.016 111.409 293.16 107.75 293.16L101.01 293.208L102.695 294.941C104.187 296.53 110.061 301.778 112.757 303.993C113.768 304.811 115.165 304.908 130.523 305.1C139.671 305.196 148.096 305.389 149.204 305.533C150.744 305.726 151.9 306.352 153.777 307.941C155.126 309.096 156.57 310.059 156.907 310.059C157.244 310.059 157.533 310.252 157.533 310.541C157.533 310.781 158.207 311.022 158.977 311.022C160.662 311.022 163.021 312.081 164.658 313.574C166.295 315.114 166.151 318.148 164.273 320.073C162.54 321.903 160.999 322.336 158.833 321.662C156.474 320.844 155.703 319.833 154.981 316.222C154.259 312.755 153.007 310.685 150.648 309C149.155 307.893 148.867 307.893 134.038 307.748C117.524 307.556 117.187 307.604 121.809 310.204C124.264 311.552 132.545 315.692 135.578 317.04C137.986 318.099 148.193 321.422 150.311 321.855C151.226 321.999 152.959 322.384 154.163 322.625C160.566 324.021 176.984 325.466 182.087 325.081C185.12 324.888 185.313 324.792 188.154 322.096C189.983 320.314 191.765 319.111 192.968 318.774C193.979 318.485 198.168 318.244 202.212 318.244C209.916 318.244 210.686 318.099 212.804 315.981C213.815 314.97 214.345 314.826 215.982 315.018C217.137 315.163 218.293 315.692 218.774 316.27C219.208 316.848 219.882 317.281 220.267 317.281C220.652 317.281 222.915 316.27 225.226 315.018C227.585 313.815 229.992 312.563 230.57 312.274C231.196 311.985 231.677 311.6 231.677 311.359C231.677 311.166 231.918 311.022 232.207 311.022C234.085 311.022 248.047 299.515 252.236 294.556L253.247 293.304L248.384 288.779C245.736 286.323 242.27 283.049 240.729 281.509C237.696 278.572 236.973 278.235 236.973 279.727C236.973 281.364 235.914 283.097 234.855 283.194C232.881 283.29 231.052 283.001 230.474 282.423C230.137 282.086 229.318 280.642 228.644 279.198C227.922 277.753 226.959 276.164 226.478 275.635C225.996 275.105 225.322 274.19 224.937 273.661C223.541 271.639 218.63 266.68 218.197 266.824C217.956 266.92 216.415 268.269 214.73 269.906C211.408 273.131 207.99 275.442 203.079 277.898C198.698 280.064 198.746 280.835 203.657 285.553C210.349 292.053 215.452 295.615 218.004 295.615C218.534 295.615 219.737 294.749 220.748 293.69C222.193 292.149 222.867 291.764 224.215 291.764C228.163 291.764 229.8 296.193 226.815 298.697C225.033 300.237 223.059 300.286 221.519 298.937C220.122 297.686 217.619 296.578 216.271 296.578C215.693 296.578 214.104 295.808 212.756 294.893C209.29 292.582 198.457 282.038 198.457 280.979C198.457 280.016 198.168 280.064 193.642 281.172C191.716 281.653 185.169 282.52 182.954 282.568C182.184 282.616 182.087 283.194 182.087 287.382C182.087 292.39 182.617 294.749 184.061 296.386C184.687 297.06 184.976 298.119 184.976 299.611C184.976 301.489 184.783 301.971 183.772 302.645C182.328 303.608 179.535 303.319 178.187 302.067C177.032 301.008 176.984 298.36 178.091 297.06C179.247 295.76 180.113 291.33 180.113 286.66L180.161 282.712L175.732 282.423C171.254 282.086 167.403 281.412 165.332 280.642C164.707 280.401 163.792 280.209 163.31 280.209C162.396 280.209 162.347 280.594 162.347 287.527V294.845L167.066 299.467C173.469 305.774 174.962 306.882 176.887 306.544C179.343 306.207 181.461 307.315 182.328 309.433C183.002 311.07 183.05 311.407 182.424 312.755C181.991 313.622 181.028 314.537 180.113 314.874C177.899 315.837 175.395 314.44 174.384 311.696C173.373 308.952 172.073 307.315 166.103 301.104L160.903 295.712V287.575V279.487L157.148 277.705C151.804 275.153 146.796 271.783 142.511 267.739L138.804 264.272L124.794 264.176L110.783 264.08L105.006 270.098Z" fill="#A186E9"/>
<path d="M612.559 270.098L606.83 276.116L601.679 276.261C597.394 276.405 596.623 276.55 596.816 277.176C597.297 278.331 603.701 287.575 605.241 289.212L606.686 290.801H614.919H623.103L626.811 287.142C633.214 280.786 634.177 279.39 634.177 276.55C634.177 273.757 635.332 272.265 637.884 271.735C640.291 271.254 642.41 274.19 641.688 277.079C641.254 278.716 639.521 280.209 638.029 280.209C637.258 280.209 636.103 280.786 635.284 281.509C634.514 282.279 631.433 285.12 628.399 287.912L622.959 292.967L615.978 293.064C612.126 293.112 608.949 293.256 608.852 293.353C608.612 293.593 615.015 299.708 617.759 301.874C618.915 302.789 620.167 303.848 620.552 304.233C621.081 304.763 624.692 304.908 637.932 305.1C647.128 305.196 655.554 305.389 656.709 305.533C658.154 305.726 659.357 306.304 660.561 307.411C662.727 309.337 665.664 311.022 666.916 311.022C668.264 311.022 670.334 311.985 671.875 313.381C674.331 315.644 673.223 320.218 669.805 321.614C668.649 322.096 667.927 322.096 666.387 321.662C664.22 320.988 663.113 319.592 662.776 316.992C662.342 313.863 661.572 312.322 659.405 310.252C656.854 307.748 656.18 307.652 639.377 307.652C625.174 307.652 625.029 307.7 629.507 310.3C631.962 311.744 640.484 315.981 642.843 316.896C643.517 317.185 644.48 317.57 645.01 317.811C646.936 318.629 656.18 321.518 657.768 321.855C658.683 321.999 660.416 322.384 661.62 322.625C668.023 324.021 684.441 325.466 689.545 325.081C692.578 324.888 692.77 324.792 695.611 322.096C697.441 320.314 699.222 319.111 700.426 318.774C701.437 318.485 705.625 318.244 709.67 318.244C717.373 318.244 718.143 318.099 720.262 315.981C721.273 314.97 721.802 314.826 723.439 315.018C724.595 315.163 725.75 315.692 726.232 316.27C726.665 316.848 727.339 317.281 727.724 317.281C728.687 317.281 738.846 312.081 739.039 311.455C739.135 311.215 739.424 311.022 739.664 311.022C740.146 311.022 745.586 307.459 746.646 306.496C746.983 306.207 747.801 305.533 748.571 305.004C752.182 302.404 760.319 294.412 760.319 293.449C760.319 293.064 758.249 290.897 755.697 288.538C753.145 286.227 749.775 283.049 748.186 281.509C746.597 280.016 745.153 278.861 744.912 279.005C744.72 279.15 744.383 279.968 744.238 280.883C743.998 282.135 743.612 282.664 742.457 283.049C740.146 283.868 737.45 282.664 736.728 280.498C735.957 278.187 732.972 273.902 729.361 270.098C725.847 266.343 726.087 266.391 723.439 268.894C719.01 273.131 715.351 275.635 710.344 277.994C705.866 280.112 706.059 280.835 712.414 286.757C717.662 291.619 721.706 294.652 722.958 294.652C723.343 294.652 723.824 294.845 723.969 295.134C724.595 296.193 726.473 295.567 728.254 293.69C729.746 292.101 730.372 291.764 731.865 291.764C735.668 291.764 737.209 296.241 734.272 298.697C732.346 300.334 730.95 300.286 728.446 298.504C727.291 297.686 725.51 296.915 724.45 296.723C723.343 296.578 721.321 295.615 719.636 294.412C716.073 291.86 705.914 281.846 705.914 280.835C705.914 280.064 705.529 280.064 701.1 281.172C699.896 281.461 697.007 281.894 694.696 282.135C692.385 282.375 690.267 282.712 690.026 282.857C689.352 283.242 689.448 291.09 690.074 293.449C690.363 294.508 691.037 295.712 691.519 296.145C692.193 296.723 692.433 297.589 692.433 299.371C692.433 301.489 692.241 301.971 691.23 302.645C690.363 303.222 689.448 303.367 688.197 303.174C684.971 302.645 683.767 299.756 685.693 297.108C686.945 295.327 687.186 293.882 687.474 287.864L687.715 282.712L683.238 282.375C680.734 282.183 677.316 281.701 675.582 281.316C673.849 280.931 671.875 280.498 671.153 280.353L669.805 280.112V287.479V294.845L674.523 299.467C681.071 305.919 682.178 306.737 684.778 306.641C687.378 306.544 688.822 307.219 689.785 309.096C690.7 310.878 690.7 311.744 689.785 313.14C687.667 316.318 683.238 315.451 681.841 311.648C680.83 308.855 678.23 305.582 673.031 300.43L668.601 296.097L668.505 287.864L668.409 279.583L663.787 277.224C657.768 274.19 654.495 271.928 649.969 267.691L646.262 264.272L632.299 264.176L618.337 264.08L612.559 270.098Z" fill="#A186E9"/>
<path d="M363.357 271.639C362.827 271.976 362.153 272.409 361.864 272.698C361.576 272.987 359.89 274.527 358.061 276.116C356.28 277.705 354.209 279.535 353.487 280.209C352.765 280.883 351.176 282.327 349.924 283.434L347.613 285.505H334.469H321.326L318.918 282.857C317.57 281.412 316.367 280.209 316.222 280.209C316.03 280.209 315.933 283.675 315.933 287.912V295.615H339.043H362.153V293.545C362.153 290.993 361.19 285.986 360.709 285.986C360.131 285.986 358.783 282.809 358.783 281.46C358.783 278.668 362.972 277.272 365.524 279.198C367.112 280.449 367.161 283.242 365.572 285.457C364.657 286.757 364.368 287.816 364.175 291.33L363.935 295.615H371.783H379.582L381.219 293.786C383.386 291.379 384.3 289.356 384.3 286.949C384.3 283.146 388.345 280.786 391.089 283.049C392.678 284.349 392.678 287.382 391.089 289.068C390.415 289.742 389.693 290.319 389.5 290.319C388.585 290.319 382.856 294.652 382.856 295.326C382.856 295.519 385.263 295.567 388.2 295.519L393.593 295.375L393.737 293.738C393.978 291.716 394.555 290.993 396.192 290.656C399.129 290.079 402.114 292.053 402.114 294.508V295.664L409.24 295.519L416.317 295.375L416.462 293.256L416.606 291.138L406.592 281.123L396.626 271.061H380.449C369.183 271.109 364.031 271.254 363.357 271.639Z" fill="#A186E9"/>
<path d="M520.986 283.916C517.568 286.757 509.142 295.086 509.383 295.375C509.527 295.519 512.849 295.615 516.797 295.615H523.923V288.875C523.923 285.168 523.73 282.135 523.538 282.135C523.297 282.135 522.19 282.953 520.986 283.916Z" fill="#A186E9"/>
<path d="M194.557 320.073C193.065 320.459 188.346 323.588 188.346 324.214C188.346 324.936 198.216 323.877 203.657 322.577C204.764 322.336 206.497 321.903 207.508 321.662C210.253 321.036 211.168 320.555 210.494 320.17C209.771 319.736 196.242 319.688 194.557 320.073Z" fill="#A186E9"/>
<path d="M702.158 320.17C700.522 320.555 695.803 323.492 695.803 324.118C695.803 324.647 700.329 324.599 703.699 323.973C714.147 322.144 719.01 320.844 717.902 320.122C717.132 319.64 704.181 319.688 702.158 320.17Z" fill="#A186E9"/>
<path d="M39.5277 364.705C39.3833 364.801 38.4204 365.042 37.3612 365.186C36.3501 365.331 34.9539 365.668 34.2798 365.908C33.6058 366.101 32.4984 366.438 31.7762 366.582C31.0541 366.727 28.7912 368.46 26.7209 370.386C18.151 378.426 18.1991 378.426 15.0696 378.426C12.3735 378.426 12.1809 378.522 10.881 380.159C10.1106 381.122 9.19585 382.23 8.90698 382.567C8.56996 382.904 8.28108 383.385 8.28108 383.626C8.28108 383.915 8.0885 384.204 7.84777 384.3C7.17373 384.541 3.17762 392.437 2.50358 394.796C2.21471 395.999 1.73325 397.492 1.44437 398.118C1.20365 398.744 1.20365 399.418 1.39623 399.562C3.61094 401.151 6.35525 402.692 7.65519 403.077C13.0957 404.569 13.7697 410.154 8.6181 411.021C7.07744 411.262 6.64412 411.069 5.1516 409.577C3.85167 408.277 3.51465 407.603 3.70723 406.736C3.89981 405.966 3.56279 405.147 2.55173 403.943C1.7814 403.029 0.962916 402.451 0.722187 402.644C0.529604 402.884 0.240729 405.629 0.192583 408.806L0 414.536H1.73325C3.61094 414.536 4.28498 415.065 10.7365 421.228C12.8068 423.154 14.9252 425.079 15.4548 425.465C16.4177 426.139 16.4659 426.572 16.4659 437.068V447.997L18.8732 449.586C24.1692 453.052 31.4392 456.422 33.6058 456.422C34.1835 456.422 35.002 455.893 35.3872 455.267C36.2057 454.063 37.1686 445.59 37.1686 439.716V436.249L34.665 434.372C30.9096 431.579 28.406 428.642 26.6728 425.128C24.4099 420.506 23.6877 417.135 23.6877 411.165C23.6877 405.099 24.3618 402.066 26.8172 397.107C28.5023 393.64 28.5505 393.496 28.4542 388.104C28.406 382.856 28.4542 382.519 29.5615 381.363C30.9096 379.919 43.572 367.93 45.9311 365.86L47.5199 364.464H43.6201C41.5017 364.464 39.624 364.56 39.5277 364.705Z" fill="#A186E9"/>
<path d="M47.7607 366.919C40.3944 373.756 38.5649 375.489 34.9058 379.004L30.9097 382.807V386.611C30.9097 388.729 31.0541 390.463 31.2948 390.463C31.4874 390.463 32.4022 389.837 33.317 389.115C35.4354 387.429 37.7464 386.178 41.261 384.926C43.572 384.059 49.4458 383.433 51.3235 383.77C55.8492 384.637 56.3307 384.493 60.5193 380.448C62.6859 378.426 65.9598 375.297 67.8857 373.563C69.8115 371.782 71.3522 370.097 71.3522 369.856C71.3522 368.267 58.4009 364.464 53.153 364.464C50.505 364.464 50.3124 364.608 47.7607 366.919Z" fill="#A186E9"/>
<path d="M445.445 364.608C445.301 364.753 444.434 364.993 443.519 365.138C439.956 365.667 435.334 367.064 435.334 367.641C435.334 367.93 436.249 368.99 437.405 369.952L439.427 371.686H457.048H474.718L479.195 376.067C481.699 378.474 485.551 382.085 487.813 384.107C490.028 386.129 492.965 388.874 494.313 390.222C495.661 391.522 497.635 393.351 498.694 394.266L500.572 395.951L500.861 403.895C501.102 411.502 501.631 414.054 502.835 414.054C503.846 414.054 502.739 399.418 501.631 398.358C501.439 398.166 501.294 397.54 501.294 396.962C501.294 395.71 499.08 390.126 497.202 386.803C493.206 379.63 485.454 372.504 477.655 368.893C475.199 367.786 468.796 365.667 466.148 365.138C464.222 364.753 445.782 364.271 445.445 364.608Z" fill="#A186E9"/>
<path d="M539.57 365.234C536.633 366.053 532.252 367.786 530.808 368.701C529.7 369.375 529.7 369.471 529.7 381.507C529.7 390.511 529.845 393.833 530.326 394.411C530.952 395.229 534.034 395.855 534.852 395.373C535.141 395.181 535.526 394.266 535.719 393.351C537.019 386.9 541.833 382.278 547.274 382.278H549.922V373.371V364.464L545.974 364.512C543.759 364.56 540.918 364.897 539.57 365.234Z" fill="#A186E9"/>
<path d="M551.366 373.13C551.366 382.326 551.463 382.759 553.629 383.433C555.17 383.915 557.288 386.13 558.299 388.248C558.973 389.74 559.118 390.944 558.973 393.833C558.733 398.166 557.481 400.67 553.677 404.714L551.366 407.169V419.254C551.366 425.946 551.559 431.387 551.8 431.387C551.992 431.387 552.811 430.809 553.581 430.039C554.351 429.316 556.518 427.439 558.347 425.85C560.225 424.261 562.103 422.528 562.584 422.046C563.355 421.18 563.403 419.254 563.403 395.566C563.403 381.508 563.258 369.182 563.066 368.171C562.68 365.764 560.947 365.09 554.399 364.608L551.366 364.368V373.13Z" fill="#A186E9"/>
<path d="M632.973 365.042C631.914 365.33 630.759 365.619 630.47 365.716C629.988 365.86 629.844 368.46 629.844 376.693C629.844 386.563 630.133 389.066 631.047 387.574C631.336 387.092 633.118 386.226 636.729 384.781L638.029 384.204V374.334V364.464L636.488 364.512C635.621 364.56 634.032 364.801 632.973 365.042Z" fill="#A186E9"/>
<path d="M639.473 374.045C639.473 379.341 639.617 383.77 639.858 383.915C640.05 384.011 641.11 383.963 642.169 383.77C644.239 383.385 650.209 384.107 653.531 385.118C657.479 386.322 658.731 383.337 658.731 372.889C658.731 367.256 658.635 366.438 657.913 366.149C655.457 365.186 650.161 364.464 645.154 364.464H639.473V374.045Z" fill="#A186E9"/>
<path d="M710.97 364.945C710.199 365.138 708.947 365.475 708.225 365.619L706.877 365.908V376.5V387.092L708.273 385.744C710.199 383.915 713.425 382.278 715.11 382.278H716.506V373.371V364.464L714.484 364.512C713.329 364.512 711.788 364.705 710.97 364.945Z" fill="#A186E9"/>
<path d="M718.047 373.226L718.191 382.037L720.839 382.182C723.584 382.278 723.728 382.326 728.061 384.396L730.709 385.6L730.854 380.689L730.95 375.778L734.705 372.312C737.161 370.049 738.268 368.701 737.931 368.412C737.402 367.882 731.287 365.908 727.435 364.994C726.184 364.705 723.536 364.464 721.562 364.464H717.951L718.047 373.226Z" fill="#A186E9"/>
<path d="M92.5364 379.148C92.5364 387.574 92.6808 391.859 93.0178 391.666C93.3067 391.474 93.4993 386.755 93.4993 379.148C93.4993 371.541 93.3067 366.823 93.0178 366.63C92.6808 366.438 92.5364 370.723 92.5364 379.148Z" fill="#A186E9"/>
<path d="M95.2807 366.727C95.0881 366.871 94.9437 372.745 94.9437 379.678V392.34L93.74 393.544L92.5364 394.748V425.368V455.941H97.8324H103.128V425.994C103.128 394.025 102.936 390.992 100.914 388.537C100.047 387.574 99.7582 386.611 99.7582 385.022C99.7582 383.818 99.9508 382.711 100.192 382.567C100.432 382.374 101.636 382.133 102.888 381.941C104.862 381.7 105.247 381.796 106.499 383C108.087 384.541 108.376 386.129 107.173 387.141C106.788 387.478 106.065 388.392 105.632 389.211C104.91 390.559 104.814 393.64 104.814 423.202V455.7L109.05 455.845L113.239 455.989V438.705C113.239 425.32 113.384 421.276 113.865 420.891C114.202 420.602 115.454 420.313 116.609 420.217L118.776 420.072L118.92 416.365L119.065 412.706L122.868 409.047C124.987 407.073 126.72 405.34 126.72 405.195C126.72 405.051 123.735 404.858 120.124 404.81L113.48 404.666L113.335 394.459L113.239 384.204L114.491 383.915C115.213 383.722 119.209 383.722 123.398 383.915L131.053 384.252V375.923C131.053 370.049 130.86 367.353 130.475 366.967C130.042 366.534 125.42 366.39 112.758 366.39C103.321 366.39 95.4251 366.534 95.2807 366.727Z" fill="#A186E9"/>
<path d="M164.321 367.16C164.321 367.69 164.466 367.834 164.61 367.449C164.755 367.112 164.707 366.679 164.562 366.534C164.418 366.342 164.273 366.63 164.321 367.16Z" fill="#A186E9"/>
<path d="M166.296 366.967C165.477 367.786 165.574 369.519 166.633 371.349C167.451 372.841 181.943 395.229 182.376 395.71C182.473 395.807 182.569 389.259 182.569 381.17V366.39H174.721C169.281 366.39 166.681 366.582 166.296 366.967Z" fill="#A186E9"/>
<path d="M184.013 382.326V398.31L185.65 400.766C186.517 402.114 189.406 406.447 192.005 410.443L196.772 417.665L197.013 436.683L197.253 455.7L199.372 455.845C202.549 456.085 203.56 455.652 204.523 453.678C205.39 451.993 205.438 450.164 205.583 428.546L205.727 405.243L207.99 402.547C209.242 401.103 211.167 398.888 212.275 397.685C214.152 395.759 214.345 395.277 214.345 393.111V390.752L213.286 392.052C212.66 392.774 211.504 394.603 210.734 396.096C209.916 397.588 209.049 398.888 208.76 398.985C208.327 399.129 203.753 391.811 203.753 390.896C203.753 390.655 203.56 390.463 203.32 390.463C203.079 390.463 202.79 390.078 202.646 389.596C202.453 389.163 201.779 387.815 201.057 386.611C196.29 378.523 194.99 376.308 193.016 372.649C189.55 366.342 189.598 366.39 186.661 366.39H184.013V382.326Z" fill="#A186E9"/>
<path d="M227.345 367.449C226.815 368.027 226.382 368.797 226.382 369.134C226.382 369.471 226.237 369.76 226.045 369.76C225.804 369.76 225.419 370.241 225.13 370.867C224.071 372.986 220.893 378.667 220.652 378.908C220.508 379.052 220.026 379.774 219.641 380.593C219.256 381.363 218.823 382.133 218.678 382.278C218.534 382.422 218.052 383.193 217.619 384.059C216.945 385.263 216.752 386.707 216.752 391.233V396.914L212.419 401.055L208.086 405.147V424.646C208.086 435.383 208.327 446.312 208.568 448.912C208.905 453.148 209.097 453.823 210.205 454.834C211.312 455.845 211.842 455.989 214.971 455.845L218.438 455.7L218.678 436.683L218.919 417.665L224.215 409.721C227.152 405.34 229.559 401.488 229.656 401.151C229.752 400.862 229.993 400.573 230.233 400.573C230.426 400.573 230.955 399.803 231.389 398.888C232.111 397.396 232.207 395.277 232.159 382.519C232.159 374.43 232.015 367.497 231.87 367.112C231.437 366.005 228.548 366.197 227.345 367.449Z" fill="#A186E9"/>
<path d="M235.193 366.727C234.711 366.871 234.567 370.049 234.567 380.208C234.567 391.185 234.663 393.303 235.193 392.774C236.204 391.763 246.122 376.982 246.122 376.452C246.122 376.211 246.314 376.019 246.507 376.019C246.748 376.019 247.229 375.441 247.614 374.671C247.999 373.949 248.433 373.275 248.577 373.13C249.299 372.504 252.381 367.545 252.381 367.016C252.381 366.534 250.455 366.39 244.1 366.438C239.526 366.438 235.481 366.582 235.193 366.727Z" fill="#A186E9"/>
<path d="M260.083 409.336V452.282L263.694 448.719L267.305 445.156V406.543C267.305 385.311 267.161 367.593 267.016 367.16C266.776 366.582 266.005 366.39 263.406 366.39H260.083V409.336Z" fill="#A186E9"/>
<path d="M268.75 405.821V445.253L264.417 449.73C262.057 452.137 260.083 454.545 260.083 455.026C260.083 455.893 260.709 455.941 270.676 455.941H281.268V449.538C281.268 443.712 281.171 442.99 280.305 442.219C279.39 441.353 279.342 440.727 279.342 421.035C279.342 401.536 279.39 400.67 280.305 399.514C281.123 398.455 281.268 397.396 281.364 391.137L281.508 383.963L285.119 383.722L288.73 383.482V375.056V366.63L278.764 366.486L268.75 366.39V405.821Z" fill="#A186E9"/>
<path d="M290.608 367.016C290.512 367.353 290.464 371.301 290.512 375.778L290.656 383.963L294.652 384.107L298.6 384.252V375.634C298.6 367.064 298.6 366.967 297.541 366.679C295.471 366.149 290.897 366.342 290.608 367.016Z" fill="#A186E9"/>
<path d="M331.436 375.634L331.58 384.926L336.587 385.07C340.872 385.167 341.643 385.07 342.22 384.348C342.702 383.674 342.846 381.363 342.894 374.912V366.39H337.117H331.339L331.436 375.634Z" fill="#A186E9"/>
<path d="M345.59 367.16C345.398 367.642 345.398 371.445 345.59 375.73C345.976 385.407 345.879 385.263 351.561 385.167C353.823 385.118 355.942 385.118 356.279 385.118C356.712 385.167 356.857 391.281 356.857 414.006C356.857 436.49 357.001 442.942 357.483 443.327C357.771 443.567 362.538 443.953 368.026 444.145L377.993 444.482L378.281 443.375C378.426 442.749 378.474 439.379 378.426 435.96L378.281 429.701L373.852 429.557C371.397 429.509 369.375 429.22 369.375 428.979C369.375 428.739 371.397 428.45 373.852 428.402L378.281 428.257L378.426 413.861L378.522 399.514L376.741 397.733C375.73 396.77 372.408 393.737 369.423 390.944C366.389 388.152 360.949 383.144 357.386 379.822L350.838 373.804L350.694 371.156C350.501 366.582 350.357 366.39 347.998 366.39C346.505 366.39 345.783 366.63 345.59 367.16ZM366.052 421.324C367.16 421.757 367.401 422.191 367.641 424.309C367.834 425.705 368.075 427.294 368.219 427.824C368.46 428.787 368.363 428.835 366.149 428.642C363.308 428.353 360.901 427.294 360.227 426.042C359.408 424.55 360.131 421.854 361.623 421.035C362.875 420.361 363.645 420.409 366.052 421.324Z" fill="#A186E9"/>
<path d="M351.994 369.375C351.946 371.06 351.946 372.649 351.994 372.986C352.042 373.323 353.535 374.912 355.268 376.597C357.049 378.282 360.468 381.508 362.875 383.77C375.441 395.711 377.8 397.781 378.234 397.348C378.378 397.203 378.522 394.362 378.522 391.137V385.167L390.944 385.07L403.318 384.926L403.462 375.634L403.558 366.39H377.8H352.042L351.994 369.375Z" fill="#A186E9"/>
<path d="M626.473 366.727C624.114 367.497 616.844 370.964 615.64 371.926C615.111 372.312 613.763 373.323 612.655 374.093L610.585 375.537V385.792C610.633 395.71 610.633 396.048 611.692 397.203C613.377 399.081 618.77 403.943 619.155 403.943C619.347 403.943 619.829 402.932 620.214 401.632C621.273 397.973 623.295 394.651 626.81 390.848L628.88 388.585V378.234C628.88 372.552 628.736 367.593 628.591 367.16C628.303 366.39 627.773 366.293 626.473 366.727Z" fill="#A186E9"/>
<path d="M703.026 367.016C698.933 368.508 695.322 370.867 691.519 374.526C689.304 376.693 689.304 376.693 689.4 379.726C689.449 381.796 689.689 383 690.219 383.53C691.856 385.118 692.53 386.996 691.904 388.2C690.941 389.981 689.93 390.463 687.378 390.366L684.971 390.27L685.067 394.314C685.212 398.551 686.175 402.355 687.667 404.521C688.197 405.195 688.582 405.917 688.582 406.062C688.582 406.254 689.111 406.977 689.786 407.699L690.989 408.999L693.493 406.543C694.889 405.243 697.633 402.644 699.607 400.766C701.581 398.936 703.748 396.818 704.518 396.096L705.818 394.748L705.577 380.689C705.481 372.938 705.192 366.582 705.048 366.534C704.855 366.486 703.94 366.727 703.026 367.016Z" fill="#A186E9"/>
<path d="M751.027 367.016C750.882 367.401 751.075 368.316 751.412 369.086C751.749 369.856 752.856 372.649 753.819 375.297C754.782 377.945 755.793 380.593 756.034 381.17C756.275 381.796 756.708 382.807 756.949 383.481C757.238 384.155 757.623 385.167 757.863 385.744C758.104 386.37 758.586 387.718 758.923 388.777C759.212 389.837 759.645 390.896 759.837 391.185C759.982 391.425 760.415 392.581 760.8 393.688C761.137 394.796 761.667 395.807 761.956 395.903C762.293 396.047 764.219 394.555 766.241 392.581L769.948 389.018V378.282C769.948 370.578 769.804 367.401 769.37 366.967C768.504 366.101 751.364 366.149 751.027 367.016Z" fill="#A186E9"/>
<path d="M771.248 366.727C771.055 366.871 770.911 372.071 770.911 378.234V389.404L766.818 393.255C763.737 396.144 762.726 397.396 762.726 398.31C762.726 398.985 762.967 399.707 763.207 399.851C763.496 399.996 763.689 400.573 763.689 401.103C763.689 401.584 763.881 402.403 764.122 402.884C764.507 403.655 765.181 405.195 766.048 407.41C767.3 410.684 767.589 411.214 767.974 411.069C768.214 410.973 770.381 409.047 772.836 406.688L777.314 402.499H781.84C785.403 402.499 786.317 402.355 786.317 401.825C786.317 401.44 786.125 400.959 785.836 400.814C785.595 400.67 785.354 399.899 785.354 399.177C785.354 398.455 785.162 397.685 784.969 397.396C784.728 397.155 784.295 395.999 783.958 394.796C783.621 393.592 783.14 392.244 782.899 391.811C782.658 391.329 782.466 390.607 782.466 390.222C782.466 389.355 781.166 389.259 780.925 390.078C780.636 390.944 775.629 390.896 774.618 390.029C773.222 388.922 773.559 386.226 775.292 384.637C776.784 383.241 778.325 382.856 778.855 383.722C779.288 384.444 780.058 384.3 780.058 383.482C780.058 382.471 775.196 367.69 774.618 366.968C774.136 366.342 771.777 366.149 771.248 366.727Z" fill="#A186E9"/>
<path d="M816.794 366.967C816.553 367.304 815.301 370.819 814.049 374.815C812.749 378.763 811.546 382.47 811.305 383C810.872 384.011 810.727 385.022 810.823 385.985C810.872 386.418 811.834 386.611 814.001 386.611C817.612 386.611 817.082 386.948 826.76 377.608L831.334 373.13H834.511H837.737L838.748 370.964C839.326 369.76 839.807 368.316 839.904 367.69L840 366.63L828.637 366.486C819.875 366.39 817.179 366.534 816.794 366.967Z" fill="#A186E9"/>
<path d="M132.353 367.208C131.919 367.641 131.919 383.867 132.401 384.444C132.593 384.685 133.508 385.311 134.519 385.744C135.482 386.178 136.878 387.333 137.601 388.344C138.708 389.788 138.997 390.703 139.141 393.351C139.43 398.551 137.552 401.584 132.979 403.317C131.775 403.751 130.475 404.473 130.09 404.858C129.705 405.291 127.634 407.121 125.516 408.999C123.398 410.828 121.375 412.658 120.99 412.995C120.172 413.765 120.076 419.494 120.846 420.409C121.135 420.746 122.387 423.009 123.638 425.368C124.89 427.776 126.238 430.231 126.671 430.905C127.105 431.579 128.02 433.168 128.645 434.516C129.32 435.816 129.994 436.971 130.234 437.068C130.427 437.164 130.571 437.549 130.571 437.982C130.571 438.368 130.956 439.282 131.486 439.956C131.968 440.679 132.834 442.171 133.412 443.327C133.99 444.434 134.616 445.349 134.808 445.349C135.001 445.349 138.467 442.123 142.511 438.223C150.696 430.327 150.311 431.242 147.519 426.572C145.304 422.865 144.967 422.287 143.426 419.976L142.078 417.906L144.389 416.943C145.641 416.413 147.133 415.739 147.663 415.402C148.193 415.113 149.252 414.535 149.974 414.15L151.322 413.476L151.226 406.158L151.13 398.888L155.752 394.17C158.351 391.618 160.422 389.114 160.422 388.633C160.422 388.2 160.181 386.948 159.892 385.889C157.822 377.993 151.178 371.637 141.886 368.556C140.778 368.219 133.942 366.871 133.171 366.871C132.882 366.871 132.497 367.016 132.353 367.208Z" fill="#A186E9"/>
<path d="M300.286 367.16C299.997 367.256 299.853 370.578 299.901 376.019L299.997 384.733L302.067 386.274C305.004 388.537 305.919 390.414 305.967 394.073C306.015 397.347 305.438 399.033 303.464 401.199C302.404 402.306 302.308 402.692 302.838 403.462C303.801 405.051 303.512 406.688 301.923 408.228C299.949 410.202 297.638 410.299 296.29 408.373C295.76 407.651 295.279 406.64 295.183 406.11C294.99 405.195 294.557 405.147 288.153 405.003L281.317 404.858L281.124 403.077C281.028 402.114 280.979 410.154 280.979 421.035C280.979 434.323 281.076 437.79 281.268 431.627L281.509 422.48L290.657 422.191C295.712 421.998 300.767 421.709 301.971 421.517C304.427 421.083 304.571 420.939 315.596 410.539L323.155 403.317V390.607V377.897L320.652 375.345C319.255 373.949 317.378 372.504 316.559 372.119C315.693 371.782 314.97 371.301 314.97 371.108C314.97 370.867 314.537 370.723 314.008 370.723C313.478 370.723 313.045 370.482 313.045 370.241C313.045 369.952 312.611 369.76 312.13 369.76C311.6 369.76 311.071 369.567 310.926 369.327C310.782 369.134 309.963 368.797 309.097 368.653C308.23 368.46 306.015 368.027 304.138 367.593C302.308 367.208 300.767 366.871 300.767 366.919C300.767 366.919 300.575 367.016 300.286 367.16Z" fill="#A186E9"/>
<path d="M660.32 367.208C659.55 367.497 659.501 372.119 660.175 378.908C660.657 383.482 660.801 383.915 662.101 385.022C663.69 386.37 663.883 387.622 662.823 389.692C661.957 391.329 661.957 391.426 662.727 391.426C663.449 391.426 677.026 377.897 677.026 377.174C677.026 376.163 670.19 370.723 668.89 370.723C668.601 370.723 668.36 370.578 668.36 370.338C668.36 370.145 667.782 369.76 667.06 369.423C663.786 367.979 661.042 366.871 660.994 366.919C660.946 366.919 660.609 367.064 660.32 367.208Z" fill="#A186E9"/>
<path d="M564.847 393.688V420.024L566.436 418.628C577.702 408.469 582.276 399.899 581.554 390.27C580.976 382.663 578.954 378.137 573.995 373.13C571.202 370.386 566.725 367.353 565.328 367.353C564.991 367.353 564.847 376.308 564.847 393.688Z" fill="#A186E9"/>
<path d="M429.798 369.423C427.15 371.012 421.902 374.623 420.458 375.874C418.291 377.656 413.717 383.144 412.321 385.6C410.636 388.537 409.962 389.885 409.192 391.907C408.132 394.748 408.132 394.94 409.48 394.603C413.284 393.688 415.98 400.332 412.417 401.921C410.925 402.643 408.518 402.692 408.132 402.018C407.988 401.729 407.555 401.536 407.218 401.536C406.592 401.536 405.484 406.736 405.484 409.721C405.484 411.021 405.629 411.213 406.351 410.876C406.784 410.636 412.032 410.347 418.002 410.202L428.835 409.962L428.931 408.036C429.702 395.277 438.175 385.937 451.03 383.722C458.445 382.422 467.111 385.407 472.648 391.233C475.296 393.929 477.944 398.695 479.196 402.98C480.062 405.821 480.062 415.402 479.196 418.917L478.522 421.661L482.999 425.946L487.477 430.231L487.38 438.271C487.284 445.06 487.38 446.312 487.958 446.312C488.777 446.312 492.484 442.364 494.65 439.138C496.817 436.057 500.332 429.172 500.332 428.064C500.332 427.535 500.572 426.957 500.813 426.813C501.102 426.668 501.295 425.898 501.295 425.176C501.295 424.454 501.535 423.635 501.872 423.298C502.209 422.961 502.354 422.72 502.257 422.72C502.113 422.672 500.958 422.624 499.609 422.576C497.154 422.48 495.084 421.228 494.025 419.206C493.543 418.339 494.747 415.017 495.517 415.017C495.71 415.017 496.384 413.861 496.961 412.513C497.828 410.491 498.117 408.758 498.31 403.847L498.55 397.684L496.384 395.614C492.628 392.051 480.447 380.593 479.918 380.111C479.581 379.822 478.04 378.378 476.403 376.837L473.418 374.093H455.893H438.368L435.624 371.445C432.831 368.749 431.628 368.315 429.798 369.423Z" fill="#A186E9"/>
<path d="M736.053 372.215L732.394 375.634V381.267V386.9L733.838 388.296C734.849 389.259 735.427 389.548 735.668 389.163C735.861 388.874 737.835 386.707 740.097 384.348C746.501 377.656 748.282 375.634 748.282 375.104C748.282 374.863 747.271 373.9 746.019 373.082C744.719 372.215 743.66 371.349 743.564 371.108C743.468 370.915 743.179 370.723 742.89 370.723C742.649 370.723 741.831 370.289 741.06 369.76L739.712 368.797L736.053 372.215Z" fill="#A186E9"/>
<path d="M23.206 370.386C19.6914 372.167 14.5398 375.923 14.5398 376.693C14.5398 376.837 15.3583 376.982 16.3693 376.982C17.9581 376.934 18.584 376.548 22.0024 373.13C24.1208 371.012 25.7578 369.278 25.6133 369.278C25.4689 369.278 24.4097 369.76 23.206 370.386Z" fill="#A186E9"/>
<path d="M68.1743 375.73C65.2856 378.474 61.9635 381.556 60.808 382.615C58.4489 384.733 58.497 385.215 61.0487 386.418C61.9635 386.852 63.7931 388.152 65.0448 389.307C66.3448 390.463 67.5966 391.426 67.7892 391.426C68.0299 391.426 71.3038 388.344 75.011 384.637C79.8738 379.774 81.7514 377.56 81.5589 377.03C81.2218 376.163 77.5628 372.697 76.985 372.649C76.7924 372.649 76.1665 372.215 75.5888 371.686C75.011 371.156 74.2888 370.723 73.9518 370.723C73.6629 370.723 71.0631 372.986 68.1743 375.73Z" fill="#A186E9"/>
<path d="M525.223 372.745C522.864 374.767 518.627 380.256 518.627 381.267C518.627 381.556 518.434 381.796 518.145 381.796C517.905 381.796 517.664 382.182 517.664 382.663C517.664 383.144 517.471 383.722 517.231 383.963C516.701 384.541 515.257 390.318 515.257 391.811C515.257 392.485 515.594 392.918 516.364 393.062C518.868 393.544 525.223 394.314 526.715 394.314H528.256V382.519C528.256 376.019 528.112 370.723 527.871 370.723C527.678 370.723 526.475 371.638 525.223 372.745Z" fill="#A186E9"/>
<path d="M831.768 375.393C830.997 376.115 827.675 379.196 824.449 382.23L818.576 387.718L814.58 387.622C811.643 387.526 810.391 387.718 810.006 388.2C809.284 389.018 805.143 401.632 805.432 402.114C805.528 402.355 806.106 402.499 806.684 402.499C807.31 402.499 808.995 403.655 810.872 405.436C814.917 409.191 818.431 411.839 820.405 412.61C821.801 413.139 822.042 413.139 822.668 412.321C823.053 411.791 823.39 411.117 823.39 410.78C823.39 410.443 823.583 409.817 823.824 409.336C824.064 408.902 824.449 407.988 824.738 407.314C824.979 406.64 825.557 405.34 825.942 404.425C826.327 403.51 826.809 402.21 827.001 401.536C827.386 400.236 828.494 397.444 829.216 396.144C829.457 395.662 829.649 395.036 829.649 394.796C829.649 394.507 830.083 393.351 830.612 392.292C831.142 391.185 831.575 389.981 831.575 389.644C831.575 389.307 831.768 388.633 832.008 388.152C832.827 386.659 834.319 383.048 834.705 381.796C834.849 381.122 835.427 379.726 835.908 378.667C836.39 377.608 836.871 376.163 836.919 375.537C837.112 374.43 836.919 374.334 835.138 374.189C833.597 374.093 832.923 374.286 831.768 375.393Z" fill="#A186E9"/>
<path d="M606.011 380.256C604.759 381.748 603.508 383.481 603.219 384.059C602.93 384.685 602.545 385.167 602.304 385.167C602.111 385.167 601.919 385.455 601.919 385.744C601.919 386.081 601.486 386.9 600.956 387.574C600.426 388.248 599.993 389.163 599.993 389.596C599.993 390.077 599.8 390.463 599.512 390.463C599.271 390.463 599.03 390.896 599.03 391.377C599.03 391.907 598.838 392.437 598.597 392.581C598.356 392.725 598.067 393.351 597.923 393.929C597.778 394.555 597.201 396.866 596.623 399.129C595.901 402.018 595.564 404.906 595.515 409.095L595.419 414.969L597.489 416.798L599.56 418.628L599.704 425.609C599.849 433.216 599.993 433.649 603.989 439.475C605.819 442.219 612.463 448.719 613.329 448.719C613.955 448.719 614.003 448.045 613.715 444.771C613.426 441.16 613.233 440.631 611.789 439.09C609.863 437.02 609.141 435.672 609.141 434.035C609.141 431.146 611.837 428.498 614.822 428.498C616.363 428.498 619.396 430.809 620.744 432.975C621.514 434.323 621.562 434.564 620.84 435.912C620.407 436.731 619.492 438.079 618.77 438.897C616.748 441.208 615.496 449.875 616.989 451.319C617.759 452.089 623.44 454.785 626.04 455.604C632.347 457.626 632.299 457.626 632.78 456.856C633.021 456.471 633.214 451.704 633.214 446.215V436.249L631.432 435.383C628.447 433.986 623.97 429.124 622.188 425.368C619.3 419.35 618.77 417.039 618.77 410.925V406.399L613.955 401.729L609.141 397.059V387.526C609.141 382.278 608.948 377.897 608.756 377.752C608.515 377.608 607.311 378.763 606.011 380.256Z" fill="#A186E9"/>
<path d="M325.08 392.34V402.692L316.173 411.31C311.263 416.076 307.315 420.024 307.363 420.12C307.459 420.217 308.518 419.928 309.674 419.543C318.196 416.606 324.406 410.395 326.717 402.547C327.632 399.466 327.777 389.114 326.958 386.563C325.225 381.17 325.08 381.507 325.08 392.34Z" fill="#A186E9"/>
<path d="M155.992 395.229L152.237 398.936V405.291C152.237 411.117 152.285 411.599 153.104 411.31C154.981 410.588 158.159 405.869 159.411 401.969C160.47 398.647 161 391.859 160.181 391.618C159.94 391.522 158.015 393.159 155.992 395.229Z" fill="#A186E9"/>
<path d="M706.877 395.47C706.877 396.336 706.155 397.107 698.066 404.618C694.985 407.458 692.433 409.962 692.433 410.154C692.433 410.491 695.418 412.61 697.729 413.91C699.559 414.969 707.31 417.906 710.729 418.917C711.932 419.254 713.136 419.687 713.377 419.832C713.665 420.024 714.436 420.313 715.206 420.409L716.506 420.65V410.684C716.506 403.269 716.362 400.573 715.928 400.236C715.591 399.996 714.388 399.466 713.232 399.129C712.077 398.744 710.199 397.636 708.995 396.577C707.503 395.277 706.877 394.94 706.877 395.47Z" fill="#A186E9"/>
<path d="M718.143 401.729C718.047 402.018 717.999 406.592 718.047 411.839C718.191 420.746 718.239 421.469 719.154 421.95C722.813 424.02 724.498 425.609 725.702 428.065C726.424 429.509 728.205 431.82 729.698 433.216L732.394 435.816V444.916C732.394 451.945 732.539 453.967 733.02 453.871C733.742 453.726 737.498 451.271 739.038 449.971C739.953 449.152 740.098 448.671 739.857 447.467C739.616 446.167 739.857 445.638 741.494 443.953C742.697 442.701 743.564 441.257 743.805 440.149C743.997 439.186 744.19 433.12 744.19 426.716V415.065L742.023 412.85C740.194 410.925 736.198 407.795 735.668 407.795C735.572 407.795 735.572 408.614 735.668 409.673C736.053 413.621 731.865 415.547 728.928 412.754C727.339 411.262 727.194 409.817 728.494 408.469C728.976 407.94 729.65 407.025 729.939 406.447C730.42 405.484 730.324 405.34 728.687 404.618C727.676 404.232 725.894 403.558 724.691 403.173C723.487 402.788 722.091 402.258 721.561 402.018C719.78 401.247 718.384 401.103 718.143 401.729Z" fill="#A186E9"/>
<path d="M777.892 405.484C777.651 405.725 775.389 407.843 772.933 410.202L768.456 414.391L769.274 416.269C769.707 417.328 770.285 418.676 770.574 419.35C770.815 420.024 771.2 420.987 771.441 421.517C771.633 422.046 772.307 423.876 772.885 425.609C773.463 427.342 774.089 428.931 774.329 429.172C774.57 429.461 774.763 430.038 774.763 430.52C774.763 431.675 775.533 431.627 776.785 430.424C777.748 429.557 778.518 429.461 786.414 429.461C791.229 429.461 794.984 429.268 794.984 429.027C794.984 428.498 788.388 408.036 787.618 406.206C787.04 404.906 786.992 404.906 782.707 404.906C780.348 404.954 778.181 405.195 777.892 405.484Z" fill="#A186E9"/>
<path d="M804.276 405.484C803.842 406.062 796.428 428.401 796.428 429.124C796.428 429.316 800.857 429.461 806.25 429.461H816.071L817.083 427.294C817.66 426.09 818.094 424.935 818.094 424.694C818.094 424.454 818.431 423.635 818.816 422.913C819.731 421.18 819.731 420.313 818.864 420.313C817.66 420.313 815.59 417.376 815.879 416.172C816.312 414.487 815.349 413.091 809.331 406.784C807.502 404.81 805.239 404.28 804.276 405.484Z" fill="#A186E9"/>
<path d="M546.551 411.647L543.47 414.439L545.011 415.739C547.033 417.424 547.033 419.013 545.059 420.843C543.277 422.528 541.207 422.672 539.474 421.276C538.03 420.169 537.115 420.072 536.248 420.891C535.622 421.517 529.026 427.487 527.197 429.076C525.993 430.135 518.193 437.212 517.375 438.031C516.845 438.512 516.701 440.631 516.701 447.034C516.701 454.16 516.797 455.411 517.471 455.652C517.905 455.797 518.338 455.941 518.434 455.941C518.53 455.941 518.627 454.304 518.627 452.282V448.623L523.923 443.375C529.989 437.309 532.108 434.468 532.108 432.398C532.108 429.076 537.211 428.402 539.666 431.387C541.496 433.601 538.752 437.597 535.285 437.646C533.552 437.646 529.363 440.631 524.019 445.59L520.023 449.345L520.167 452.523L520.312 455.7L531.626 455.845L542.94 455.941L546.455 452.763L549.922 449.586V443.616V437.646H547.755C546.551 437.646 545.588 437.501 545.588 437.357C545.588 437.02 546.792 435.912 548.862 434.275C549.922 433.409 549.922 433.361 549.825 421.132L549.681 408.806L546.551 411.647Z" fill="#A186E9"/>
<path d="M406.592 412.706C405.484 413.91 405.436 413.236 407.218 424.309C407.41 425.32 407.747 426.235 407.94 426.379C408.181 426.524 408.373 427.005 408.373 427.487C408.373 428.353 409.095 430.087 410.877 433.553C411.455 434.612 412.129 435.96 412.417 436.538C412.706 437.164 413.091 437.646 413.332 437.646C413.525 437.646 413.669 437.983 413.669 438.368C413.669 438.753 413.814 439.09 414.054 439.09C414.247 439.138 415.162 440.197 416.077 441.497C416.991 442.797 418.195 443.953 418.725 444.097C419.254 444.241 422.576 444.386 426.043 444.386H432.446L435.864 441.16C437.742 439.379 439.668 437.646 440.198 437.26C441.209 436.538 441.449 434.757 440.535 434.757C439.764 434.757 433.409 428.353 433.409 427.631C433.409 427.294 433.265 427.053 433.024 427.053C432.109 427.053 429.557 419.35 429.172 415.258L428.835 411.887L418.195 411.743C407.699 411.647 407.603 411.647 406.592 412.706Z" fill="#A186E9"/>
<path d="M0.33711 417.761C0.529693 418.772 0.866714 420.554 1.10744 421.757C2.02221 426.524 2.16665 427.053 2.55182 427.342C2.79255 427.487 2.98513 427.92 2.98513 428.305C2.98513 429.22 6.35534 436.394 6.93309 436.586C7.12567 436.683 7.31825 437.02 7.31825 437.309C7.3664 438.705 14.155 446.119 14.9253 445.638C15.3105 445.397 15.503 442.701 15.503 436.731V428.113L12.0365 424.839C10.1589 423.009 7.31825 420.265 5.72944 418.724C3.56288 416.606 2.55182 415.98 1.44446 415.98C8.90493e-05 415.98 8.90344e-05 416.028 0.33711 417.761Z" fill="#A186E9"/>
<path d="M595.66 418.339C595.66 419.398 597.201 425.85 597.634 426.572C597.923 427.005 598.019 425.754 597.923 423.25C597.827 419.687 597.682 419.158 596.768 418.483C595.997 418.002 595.66 417.954 595.66 418.339Z" fill="#A186E9"/>
<path d="M745.683 419.109C745.297 420.12 745.297 426.716 745.731 433.649C745.971 438.32 746.116 438.897 746.597 437.934C747.223 436.779 747.608 434.901 748.09 430.472C748.571 426.524 746.549 416.895 745.683 419.109Z" fill="#A186E9"/>
<path d="M476.162 426.476C473.226 431.675 466.774 436.586 460.852 438.127C457.386 438.994 444.964 438.223 444.964 437.116C444.964 436.875 444.29 436.683 443.471 436.683C442.316 436.683 441.257 437.453 437.935 440.631C435.672 442.845 433.361 444.915 432.783 445.204C432.109 445.59 429.798 445.782 426.283 445.782C423.298 445.734 420.747 445.83 420.602 445.975C420.41 446.167 420.987 446.697 424.406 449.489C424.839 449.875 425.465 450.163 425.706 450.163C425.995 450.163 426.187 450.356 426.187 450.549C426.187 450.982 431.146 453.534 434.372 454.737C435.576 455.171 436.972 455.748 437.501 455.941C438.464 456.326 438.946 456.47 443.76 457.482C447.516 458.252 459.745 458.493 463.019 457.867C467.207 457.096 470.096 456.374 471.203 455.941C471.733 455.748 472.937 455.267 473.851 454.978C476.644 453.967 482.325 451.126 483.288 450.212C483.818 449.778 484.588 449.249 485.069 449.056C485.792 448.767 485.888 447.901 485.888 439.86V431.001L482.181 427.583C480.159 425.705 478.281 424.165 477.992 424.165C477.703 424.165 476.885 425.176 476.162 426.476Z" fill="#A186E9"/>
<path d="M66.7302 431.146C66.2487 431.82 64.9488 432.975 63.8896 433.698C62.8304 434.42 61.8675 435.094 61.723 435.238C61.5786 435.383 60.6157 435.912 59.5565 436.442L57.6306 437.453L57.4862 447.419L57.3899 457.385H58.7861C59.6046 457.385 60.712 457.193 61.3378 456.952C61.9637 456.711 63.4081 456.23 64.6118 455.893C65.8154 455.556 67.5968 454.882 68.6079 454.4L70.3893 453.534V442.508C70.3893 432.494 70.293 431.483 69.5226 430.761C68.319 429.653 67.7894 429.75 66.7302 431.146Z" fill="#A186E9"/>
<path d="M662.149 431.194C661.187 432.398 661.138 433.072 661.138 443.375C661.138 449.345 661.331 454.497 661.524 454.785C661.909 455.411 668.023 452.571 669.805 450.982C670.334 450.549 670.96 450.163 671.201 450.163C671.393 450.163 671.923 449.778 672.356 449.297C672.982 448.575 673.175 447.419 673.175 443.664V438.945L668.505 434.468C665.905 432.012 663.642 429.942 663.449 429.942C663.257 429.942 662.679 430.52 662.149 431.194Z" fill="#A186E9"/>
<path d="M777.459 431.916C775.918 433.12 775.918 433.842 777.218 437.212C777.796 438.657 778.422 440.245 778.614 440.775C779.192 442.364 780.155 444.579 780.588 445.445C780.829 445.927 781.022 446.649 781.022 447.034C781.022 447.419 781.455 448.671 781.936 449.826C782.466 450.934 783.14 452.667 783.477 453.63L784.103 455.459H791.854L799.558 455.411L804.902 450.26C809.139 446.167 810.39 444.627 811.113 442.701C811.594 441.353 812.75 438.464 813.616 436.249C814.483 434.035 815.205 431.916 815.205 431.579C815.205 431.001 812.124 430.905 796.958 430.905C779.24 430.905 778.711 430.953 777.459 431.916Z" fill="#A186E9"/>
<path d="M687.185 438.464L680.3 445.541L681.697 446.793C684.922 449.538 685.741 450.163 686.174 450.163C686.463 450.163 686.656 450.356 686.656 450.597C686.656 450.837 687.041 451.126 687.522 451.271C687.955 451.463 689.255 452.089 690.363 452.763C692.24 453.919 697.055 455.652 701.34 456.808C710.151 459.167 721.85 458.637 729.65 455.508L730.95 454.978V445.927V436.875L729.12 435.094C727.098 433.12 725.654 432.783 725.654 434.275C725.654 434.805 724.739 436.201 723.632 437.308C719.443 441.401 711.21 441.69 703.507 437.983C700.185 436.394 699.703 436.057 696.525 433.168C695.418 432.205 694.407 431.387 694.311 431.387C694.214 431.435 690.989 434.612 687.185 438.464Z" fill="#A186E9"/>
<path d="M143.186 439.908C139.141 443.856 135.867 447.275 135.867 447.612C135.867 447.949 136.541 449.297 137.312 450.645C138.13 451.993 138.756 453.245 138.756 453.437C138.756 453.63 139.093 454.208 139.478 454.689C140.104 455.556 141.067 455.604 152.478 455.845C164.755 456.085 164.755 456.085 164.755 455.026C164.755 454.497 164.562 454.015 164.273 454.015C164.033 454.015 163.792 453.774 163.792 453.485C163.792 453.197 162.829 451.463 161.625 449.634C160.422 447.804 159.459 446.167 159.459 446.071C159.459 445.975 158.448 444.241 157.196 442.268C155.896 440.245 154.067 437.308 153.104 435.72C152.093 434.131 151.13 432.831 150.937 432.831C150.696 432.831 147.23 436.009 143.186 439.908Z" fill="#A186E9"/>
<path d="M71.8335 442.942C71.8335 449.971 71.9779 452.089 72.4594 452.089C73.8075 452.089 82.4256 445.012 82.4256 443.905C82.4256 443.279 72.8446 433.794 72.2187 433.794C72.0261 433.794 71.8335 437.886 71.8335 442.942Z" fill="#A186E9"/>
<path d="M657.768 434.757C657.094 435.286 656.276 435.72 655.987 435.72C655.65 435.72 655.361 435.912 655.361 436.201C655.361 436.442 654.928 436.682 654.446 436.682C653.917 436.682 653.339 436.875 653.194 437.164C653.05 437.405 652.424 437.645 651.846 437.645C651.269 437.645 650.402 437.982 649.969 438.319C649.198 438.897 649.102 439.956 649.102 448.382C649.102 453.582 649.295 457.915 649.535 458.059C649.921 458.3 654.735 457.578 656.324 457C656.709 456.856 657.335 456.711 657.672 456.615C659.742 456.23 659.694 456.47 659.694 444.867C659.694 438.801 659.55 433.794 659.357 433.794C659.116 433.794 658.442 434.227 657.768 434.757Z" fill="#A186E9"/>
<path d="M39.287 444.29C39.6721 453.389 39.8166 454.063 41.8387 456.422L43.5238 458.396L49.6383 458.252L55.7047 458.107L55.8491 447.804C55.9454 438.127 55.8973 437.549 55.1269 437.934C53.827 438.56 44.92 438.753 43.4757 438.175C42.8016 437.934 41.5017 437.597 40.5869 437.453L38.95 437.212L39.287 444.29Z" fill="#A186E9"/>
<path d="M551.366 444.193V450.741L549.825 452.186C548.959 452.956 547.755 453.919 547.177 454.352C546.551 454.737 546.214 455.267 546.359 455.508C546.648 455.989 558.732 456.133 559.214 455.652C559.358 455.508 558.78 454.785 557.962 454.015C556.614 452.811 556.421 452.33 556.421 450.26C556.421 448.334 556.662 447.564 557.625 446.552C559.118 444.964 561.091 443.904 562.536 443.904C564.269 443.904 566.725 445.638 567.591 447.515C568.265 448.96 568.313 449.441 567.736 451.078C567.399 452.137 566.58 453.485 566.002 454.063C565.376 454.689 564.847 455.315 564.847 455.556C564.847 455.796 567.736 455.893 571.25 455.845L577.606 455.7L577.75 450.837L577.894 445.927L575.343 443.519C573.946 442.219 572.021 440.486 571.106 439.764C570.191 438.994 569.373 438.223 569.276 437.983C569.18 437.79 565.088 437.645 560.225 437.645H551.366V444.193Z" fill="#A186E9"/>
<path d="M572.069 437.838C572.069 437.934 573.706 439.668 575.68 441.738L579.29 445.445V450.693V455.941H580.494H581.698V446.793V437.646H576.883C574.235 437.646 572.069 437.742 572.069 437.838Z" fill="#A186E9"/>
<path d="M634.658 447.275C634.658 455.989 634.754 457.096 635.525 457.674C636.103 458.107 638.077 458.3 642.025 458.348H647.658V448.526V438.705L643.228 438.416C640.773 438.271 637.836 438.031 636.728 437.838L634.658 437.549V447.275Z" fill="#A186E9"/>
<path d="M674.138 443.904C674.138 447.13 674.715 447.564 676.401 445.686C678.134 443.808 678.134 443.423 676.689 442.171C674.571 440.342 674.138 440.631 674.138 443.904Z" fill="#A186E9"/>
<path d="M365.812 445.686C361.19 445.782 357.868 446.071 357.482 446.36C357.049 446.745 356.856 448.238 356.856 451.174V455.459H367.689H378.57L378.426 450.5L378.281 445.59H375.874C374.574 445.541 370 445.59 365.812 445.686Z" fill="#A186E9"/>
<path d="M804.709 452.763C803.313 454.111 802.302 455.411 802.494 455.604C802.687 455.797 803.506 455.941 804.276 455.941C805.865 455.941 806.972 454.834 807.02 453.197C807.02 452.619 807.261 451.993 807.502 451.849C808.079 451.512 808.176 450.163 807.646 450.212C807.405 450.212 806.105 451.367 804.709 452.763Z" fill="#A186E9"/>
</svg>
